<svg width="70" height="70" viewBox="0 0 70 70" fill="none" xmlns="http://www.w3.org/2000/svg">
    <path
        d="M7.31149 47.7111H7C7.09338 33.2184 14.1933 24.9834 16.1471 22.7173C16.2964 22.544 16.4156 22.4056 16.4994 22.3022C16.9388 21.7588 20.3045 22.0448 24.5665 22.4068C27.9836 22.6971 31.977 23.0363 35.5 23.0363C39.0332 23.0363 43.1183 22.7072 46.6294 22.4244C50.9855 22.0737 54.458 21.7937 54.8965 22.3022C56.4692 24.1254 63.8997 33.5544 64 47.7111H63.6885M7.31149 47.7111C7.31087 47.807 7.31055 47.9035 7.31055 48H63.6895C63.6895 47.9035 63.6891 47.8073 63.6885 47.7111M7.31149 47.7111H63.6885M7.31149 47.7111C7.40476 33.3195 14.4476 25.1506 16.3957 22.8912C16.5451 22.7179 16.6645 22.5795 16.7485 22.4755M63.6885 47.7111C63.5882 33.6497 56.2073 24.2848 54.6542 22.4839C54.6539 22.4842 54.628 22.4614 54.5364 22.4331C54.4405 22.4033 54.3044 22.377 54.1234 22.3571C53.7621 22.3166 53.2659 22.3057 52.652 22.3184C51.4266 22.3441 49.7785 22.4637 47.8968 22.6127C47.4931 22.6448 47.0789 22.6783 46.6562 22.7124C43.1473 22.9949 39.0478 23.3251 35.5 23.3251C31.9616 23.3251 27.9531 22.9845 24.5379 22.6945C24.1155 22.6587 23.7021 22.6234 23.2998 22.5899C21.4672 22.4368 19.8698 22.3155 18.6825 22.2927C18.0876 22.2814 17.6088 22.295 17.2602 22.3389C17.0857 22.3608 16.9552 22.3889 16.8638 22.4201C16.7792 22.4489 16.752 22.4723 16.7485 22.4755M16.7485 22.4755C16.7482 22.4758 16.748 22.4758 16.7485 22.4755Z"
        stroke="#FACC15" stroke-width="3" />
</svg>