<svg width="70" height="70" viewBox="0 0 70 70" fill="none" xmlns="http://www.w3.org/2000/svg">
    <path
        d="M8 54C8.05493 36.4511 13.1564 21.9835 16.3215 16.3529C16.9141 16.0615 17.8275 15.9593 19.0172 16.0143C20.2447 16.071 21.7129 16.2914 23.3199 16.5912C24.5355 16.8179 25.8337 17.0911 27.16 17.3701C29.3162 17.8237 31.5465 18.293 33.6169 18.604C37.0638 19.1218 41.4604 19.3948 45.2222 19.6284L45.242 19.6296C47.129 19.7467 48.854 19.854 50.2272 19.9771C50.9136 20.0387 51.5076 20.1039 51.9873 20.1757C52.4034 20.238 52.7178 20.3031 52.9284 20.3695C52.9911 20.4783 53.0559 20.5902 53.1228 20.7053C55.9192 25.531 61.9373 35.9166 62 54H8Z"
        stroke="#FACC15" stroke-width="3" />
</svg>