<svg width="70" height="70" viewBox="0 0 70 70" fill="none" xmlns="http://www.w3.org/2000/svg">
    <path
        d="M10 56C10.0454 51.138 11.3162 42.0449 12.9506 33.4671C13.7821 29.1025 14.7064 24.8785 15.6084 21.4226C16.4934 18.0318 17.3497 15.4101 18.0659 14.1118C18.3046 14.0364 18.6307 13.9977 19.0455 14.0001C19.5101 14.0029 20.0645 14.0568 20.6936 14.1527C21.9519 14.3445 23.4821 14.6997 25.1413 15.1251C26.176 15.3904 27.2612 15.6831 28.3587 15.9792C30.767 16.6288 33.2344 17.2944 35.3574 17.7208C37.3554 18.1222 39.3433 18.4742 41.2293 18.8082C42.4852 19.0305 43.6957 19.2449 44.8336 19.4605C47.6581 19.9954 50.0438 20.5391 51.6665 21.2357C52.2607 22.0858 53.0702 23.8584 53.9561 26.2668C54.8595 28.7225 55.8327 31.8122 56.7289 35.1957C58.4975 41.874 59.9599 49.6765 60 56H10Z"
        stroke="#FACC15" stroke-width="3" />
</svg>