<svg xmlns="http://www.w3.org/2000/svg" viewBox="0 0 24 24"
>
    <rect x="0" y="0" width="24" height="24" fill="none" stroke="none"
    ></rect>
    <path
        fill="currentColor"
        d="M2.05 13h5.477a17.9 17.9 0 0 0 2.925 8.88A10.005 10.005 0 0 1 2.05 13zm0-2a10.005 10.005 0 0 1 8.402-8.88A17.9 17.9 0 0 0 7.527 11H2.05zm19.9 0h-5.477a17.9 17.9 0 0 0-2.925-8.88A10.005 10.005 0 0 1 21.95 11zm0 2a10.005 10.005 0 0 1-8.402 8.88A17.9 17.9 0 0 0 16.473 13h5.478zM9.53 13h4.94A15.908 15.908 0 0 1 12 20.592A15.908 15.908 0 0 1 9.53 13zm0-2A15.908 15.908 0 0 1 12 3.408A15.908 15.908 0 0 1 14.47 11H9.53z"
    ></path>
</svg>